<?xml version="1.0" encoding="UTF-8"?>
<svg width="700pt" height="700pt" version="1.1" viewBox="0 0 700 700" xmlns="http://www.w3.org/2000/svg">
 <path d="m303.33 23.332c-38.66 0-70 31.34-70 70v70h-70c-38.66 0-70 31.34-70 70v233.34c0 38.66 31.34 70 70 70h233.34c38.66 0 70-31.34 70-70v-70h70c38.66 0 70-31.34 70-70v-233.34c0-38.66-31.34-70-70-70zm163.34 326.67h70c12.887 0 23.332-10.445 23.332-23.332v-233.34c0-12.887-10.445-23.332-23.332-23.332h-233.34c-12.887 0-23.332 10.445-23.332 23.332v70h116.67c38.66 0 70 31.34 70 70zm-326.67-116.67c0-12.887 10.445-23.332 23.332-23.332h233.34c12.887 0 23.332 10.445 23.332 23.332v233.34c0 12.887-10.445 23.332-23.332 23.332h-233.34c-12.887 0-23.332-10.445-23.332-23.332z" fill-rule="evenodd"/>
</svg>
