<svg width="685" height="685" viewBox="0 0 685 685" fill="none" xmlns="http://www.w3.org/2000/svg">
<path fill-rule="evenodd" clip-rule="evenodd" d="M280 0C228.453 0 186.667 41.7867 186.667 93.3333V186.667H93.3333C41.7867 186.667 0 228.453 0 280V591.12C0 642.667 41.7867 684.453 93.3333 684.453H404.453C456 684.453 497.787 642.667 497.787 591.12V497.787H591.12C642.667 497.787 684.453 456 684.453 404.453V93.3333C684.453 41.7867 642.667 0 591.12 0H280ZM497.787 435.56H591.12C608.303 435.56 622.229 421.633 622.229 404.451V93.3307C622.229 76.148 608.303 62.2213 591.12 62.2213H280C262.817 62.2213 248.891 76.148 248.891 93.3307V186.664H404.451C455.997 186.664 497.784 228.451 497.784 279.997L497.787 435.56ZM62.2267 280C62.2267 262.817 76.1533 248.891 93.336 248.891H404.456C421.639 248.891 435.565 262.817 435.565 280V591.12C435.565 608.303 421.639 622.229 404.456 622.229H93.336C76.1533 622.229 62.2267 608.303 62.2267 591.12V280Z" fill="white"/>
</svg>
