<svg width="235" height="240" viewBox="0 0 235 240" fill="none" xmlns="http://www.w3.org/2000/svg">
<path d="M117.5 0C52.7089 0 0 53.8256 0 120C0 186.174 52.7043 240 117.5 240C182.291 240 235 186.174 235 120C235 53.8256 182.296 0 117.5 0V0ZM117.5 232.485C56.7549 232.485 7.35883 182.009 7.35883 120C7.35883 57.9624 56.7827 7.5154 117.5 7.5154C178.217 7.5154 227.641 57.9624 227.641 120C227.641 182.038 178.245 232.485 117.5 232.485ZM117.5 93.3502C107.709 93.3502 99.7219 101.506 99.7219 111.507V171.535C99.7219 181.534 107.708 189.691 117.5 189.691C127.291 189.691 135.278 181.536 135.278 171.535V111.507C135.278 101.48 127.291 93.3521 117.5 93.3521V93.3502ZM127.92 171.532C127.92 177.398 123.244 182.174 117.5 182.174C111.756 182.174 107.08 177.398 107.08 171.532V111.504C107.08 105.638 111.756 100.862 117.5 100.862C123.244 100.862 127.92 105.638 127.92 111.504V171.532ZM117.5 50.3048C107.436 50.3048 99.2579 58.6566 99.2579 68.9351C99.2579 79.2136 107.436 87.5653 117.5 87.5653C127.564 87.5653 135.742 79.2136 135.742 68.9351C135.742 58.6566 127.564 50.3048 117.5 50.3048ZM117.5 80.0542C111.483 80.0542 106.614 75.0545 106.614 68.937C106.614 62.8195 111.51 57.8198 117.5 57.8198C123.49 57.8198 128.386 62.8195 128.386 68.937C128.386 75.0526 123.517 80.0542 117.5 80.0542V80.0542Z" fill="#004AAD"/>
</svg>
