<svg width="21" height="14" viewBox="0 0 21 14" fill="none" xmlns="http://www.w3.org/2000/svg">
<path d="M10.1225 4C9.32359 4.00524 8.55888 4.32299 7.99394 4.88447C7.42899 5.44595 7.10928 6.20597 7.104 7C7.104 8.642 8.47039 10 10.1225 10C11.7737 10 13.141 8.642 13.141 7C13.141 5.359 11.7737 4 10.1225 4Z" fill="#67CCEB"/>
<path d="M10.1219 0C2.4418 0 0.133643 6.617 0.112514 6.684L0.00585938 7L0.111508 7.316C0.133643 7.383 2.4418 14 10.1219 14C17.802 14 20.1102 7.383 20.1313 7.316L20.238 7L20.1323 6.684C20.1102 6.617 17.802 0 10.1219 0ZM10.1219 12C4.73789 12 2.65209 8.154 2.14699 7C2.65411 5.842 4.74091 2 10.1219 2C15.506 2 17.5917 5.846 18.0968 7C17.5897 8.158 15.5029 12 10.1219 12Z" fill="#67CCEB"/>
</svg>
